<?xml version="1.0" ?><!DOCTYPE svg  PUBLIC '-//W3C//DTD SVG 1.1//EN'  'http://www.w3.org/Graphics/SVG/1.1/DTD/svg11.dtd'><svg enable-background="new 0 0 500 500" height="500px" id="curtain" version="1.1" viewBox="0 0 500 500" width="500px" xml:space="preserve" xmlns="http://www.w3.org/2000/svg" xmlns:xlink="http://www.w3.org/1999/xlink"><g><g><path d="M94.614,351.266h36.453c1.073,0,2.125,0.086,3.162,0.229c1.202-2.704,1.903-5.694,1.903-8.842    c0-12.017-9.743-21.774-21.767-21.774s-21.774,9.758-21.774,21.774c0,3.062,0.644,5.98,1.788,8.627    C94.457,351.28,94.536,351.266,94.614,351.266z" fill="#ffffff"/><path d="M185.746,351.266h36.453c1.073,0,2.117,0.086,3.154,0.229c1.209-2.704,1.91-5.694,1.91-8.842    c0-12.017-9.75-21.774-21.774-21.774s-21.767,9.758-21.767,21.774c0,3.062,0.644,5.98,1.788,8.627    C185.588,351.28,185.667,351.266,185.746,351.266z" fill="#ffffff"/><path d="M276.885,351.266h36.453c1.059,0,2.117,0.086,3.146,0.229c1.202-2.704,1.903-5.694,1.903-8.842    c0-12.017-9.743-21.774-21.76-21.774c-12.032,0-21.774,9.758-21.774,21.774c0,3.062,0.644,5.98,1.788,8.627    C276.728,351.28,276.799,351.266,276.885,351.266z" fill="#ffffff"/><path d="M368.002,351.266h36.453c1.072,0,2.131,0.086,3.161,0.229c1.202-2.704,1.903-5.694,1.903-8.842    c0-12.017-9.743-21.774-21.761-21.774c-12.031,0-21.774,9.758-21.774,21.774c0,3.062,0.645,5.98,1.789,8.627    C367.845,351.28,367.931,351.266,368.002,351.266z" fill="#ffffff"/><path d="M436.351,382.325h-11.638v-6.767c0-11.188-9.07-20.244-20.258-20.244h-36.453    c-11.173,0-20.243,9.057-20.243,20.244v6.767h-14.178v-6.767c0-11.188-9.07-20.244-20.243-20.244h-36.453    c-11.188,0-20.258,9.057-20.258,20.244v6.767h-14.178v-6.767c0-11.188-9.063-20.244-20.25-20.244h-36.453    c-11.188,0-20.251,9.057-20.251,20.244v6.767h-14.178v-6.767c0-11.188-9.063-20.244-20.25-20.244H94.614    c-11.181,0-20.25,9.057-20.25,20.244v6.767H62.726v13.162h11.638v19.571c0,0.586,0.128,1.13,0.179,1.702h76.611    c0.043-0.572,0.164-1.116,0.164-1.702v-19.571h14.178v19.571c0,0.586,0.122,1.13,0.172,1.702h76.61    c0.05-0.572,0.172-1.116,0.172-1.702v-19.571h14.178v19.571c0,0.586,0.121,1.13,0.172,1.702h76.61    c0.043-0.572,0.172-1.116,0.172-1.702v-19.571h14.178v19.571c0,0.586,0.129,1.13,0.171,1.702h76.611    c0.043-0.572,0.172-1.116,0.172-1.702v-19.571h11.638V382.325z" fill="#ffffff"/></g><path d="M63.906,74.742v223.633h371.265V74.742H63.906z M416.314,279.534H82.747V93.587h333.567V279.534z" fill="#ffffff"/><path d="M120.444,112.439v148.253h258.188V112.439H120.444z M299.804,191.711   c-11.438,6.981-60.559,34.271-60.559,34.271s-14.993,11.946-14.993-1.513v-0.508v-71.854c0,0-2.017-17.389,15.751-5.966   c17.775,11.42,56.739,32.368,56.739,32.368S311.22,184.729,299.804,191.711z" fill="#ffffff"/></g></svg>